# xmcd
#
# Track frame offsets:
#	150
#	13999
#	28162
#	39824
#	53531
#	68328
#	83397
#	98474
#	111043
#	124123
#	138305
#	149540
#	163923
#	184580
#	198059
#	209851
#	224684
#	239036
#	255031
#	267409
#
# Disc length: 3747
#
# Revision: 1
# Processed by: cddbd v1.5.1PL0 Copyright (c) Steve Scherf et al.
# Submitted via: CDex 1.51
# Normalized: r0:TDELIM( - )
#
DISCID=170ea114
DTITLE=Various Artist - Swingtime 06
DYEAR=2003
DGENRE=Jazz
TTITLE0=Benny Carter - There's a small hotel - 19370111-16
TTITLE1=Ben Webster - Sleep - 19440318
TTITLE2=Harry James - Sweet Georgia Brown - 19390220
TTITLE3=Teddy Wilson - 71 - 19400118
TTITLE4=Duke Ellington - Concerto for Cootie (Do nothin' till you hear from me) - 19400315
TTITLE5=Lester Young - Jump Lester jump - 19440501
TTITLE6=Django Reinhardt - I can't give you anything but love - 19360504
TTITLE7=Fats Waller - Sugar blues - 19351129
TTITLE8=Charlie Barnet - Flying home - 19400508
TTITLE9=Coleman Hawkins - I only have eyes for you - 19440131
TTITLE10=Lionel Hampton - Ribs and hot sauce - 19450521
TTITLE11=Johnny Hodges - Blue fantasia - 19510115
TTITLE12=Charlie Shavers - I'm in the market for you - 19440608
TTITLE13=Glenn Miller - Rug cutter's swing - 19391105
TTITLE14=Fletcher Henderson - Liza ( All the clouds'll roll away) - 19340925
TTITLE15=Barney Bigard - Tea for two - 19440122
TTITLE16=Bobby Hackett - Ain't misbehavin' - 19390413
TTITLE17=Benny Goodman - I can't give you anything but love, baby - 19370906
TTITLE18=Woody Herman - Blues downstairs - 1939-40
TTITLE19=Count Basie - Twelfth street rag - 19390405
EXTD=YEAR: 2003
EXTT0=
EXTT1=
EXTT2=
EXTT3=
EXTT4=
EXTT5=
EXTT6=
EXTT7=
EXTT8=
EXTT9=
EXTT10=
EXTT11=
EXTT12=
EXTT13=
EXTT14=
EXTT15=
EXTT16=
EXTT17=
EXTT18=
EXTT19=
PLAYORDER=
